# xmcd
#
# Track frame offsets:
#	150
#	11188
#	20011
#	32620
#	44504
#	58464
#	71596
#	84674
#	94765
#	103811
#	116567
#	129164
#	140838
#	156548
#	171007
#	187156
#	197498
#	213566
#	222593
#	235700
#
# Disc length: 3328 seconds
#
# Revision: 1
# Processed by: cddbd v1.5.2PL0 Copyright (c) Steve Scherf et al.
# Submitted via: audiograbber 1.81.03
#
DISCID=340cfe14
DTITLE=Various Artist - Country Teardrops Disc 1
DYEAR=2006
DGENRE=Country
TTITLE0=Conway Twitty - It's Only Make Believe
TTITLE1=Patsy Cline - I Love You So Much It Hurts
TTITLE2=Don Gibson - I Love You Because
TTITLE3=Billy Jo Spears - Ease The Want In Me
TTITLE4=George Jones - All I Have To Offer You Is Me
TTITLE5=Dottie West - D-I-V-O-R-C-E
TTITLE6=Faron Young - Make The World Go Away
TTITLE7=Marie O'Brien - Excuse Me (I Thing I've Got A Heartache)
TTITLE8=Jim Reeves - I'd Like To Be
TTITLE9=Anne Murray - All The Time
TTITLE10=Johnny Cash - I Still Miss Someone
TTITLE11=Tina Travis - Too Many Rivers
TTITLE12=Hank Williams - Wedding Bells
TTITLE13=Jo Ann Houston - Have You Ever Been Lonely
TTITLE14=Merle Haggard - Today I Started Loving You Again
TTITLE15=Cindy Morgan - I'm Begining To Forget You
TTITLE16=Willie Nelson - Always On My Mind
TTITLE17=Patsy Cline - I Fall To Pieces
TTITLE18=Kenny Rogers - Ruby, Don't Take Your Love To Town
TTITLE19=Barbara Mandrell - Try To Remember
EXTD=
EXTT0=
EXTT1=
EXTT2=
EXTT3=
EXTT4=
EXTT5=
EXTT6=
EXTT7=
EXTT8=
EXTT9=
EXTT10=
EXTT11=
EXTT12=
EXTT13=
EXTT14=
EXTT15=
EXTT16=
EXTT17=
EXTT18=
EXTT19=
PLAYORDER=
